<?xml version="1.0" encoding="UTF-8" standalone="no"?>
<!-- Created with Inkscape (http://www.inkscape.org/) -->

<svg
   xmlns:dc="http://purl.org/dc/elements/1.1/"
   xmlns:cc="http://creativecommons.org/ns#"
   xmlns:rdf="http://www.w3.org/1999/02/22-rdf-syntax-ns#"
   xmlns:svg="http://www.w3.org/2000/svg"
   xmlns="http://www.w3.org/2000/svg"
   xmlns:sodipodi="http://sodipodi.sourceforge.net/DTD/sodipodi-0.dtd"
   xmlns:inkscape="http://www.inkscape.org/namespaces/inkscape"
   width="30.690243mm"
   height="30.691252mm"
   viewBox="0 0 30.690243 30.691252"
   version="1.1"
   id="svg4890"
   inkscape:version="0.92.1 r15371"
   sodipodi:docname="pause.svg">
  <defs
     id="defs4884" />
  <sodipodi:namedview
     id="base"
     pagecolor="#ffffff"
     bordercolor="#666666"
     borderopacity="1.0"
     inkscape:pageopacity="0.0"
     inkscape:pageshadow="2"
     inkscape:zoom="1.979899"
     inkscape:cx="-79.861402"
     inkscape:cy="-41.206672"
     inkscape:document-units="mm"
     inkscape:current-layer="layer1"
     showgrid="false"
     inkscape:window-width="1920"
     inkscape:window-height="1001"
     inkscape:window-x="-9"
     inkscape:window-y="-9"
     inkscape:window-maximized="1"
     inkscape:snap-page="true"
     inkscape:snap-bbox="true"
     inkscape:bbox-nodes="true"
     inkscape:snap-bbox-midpoints="true"
     inkscape:snap-bbox-edge-midpoints="true"
     inkscape:bbox-paths="true" />
  <metadata
     id="metadata4887">
    <rdf:RDF>
      <cc:Work
         rdf:about="">
        <dc:format>image/svg+xml</dc:format>
        <dc:type
           rdf:resource="http://purl.org/dc/dcmitype/StillImage" />
        <dc:title />
      </cc:Work>
    </rdf:RDF>
  </metadata>
  <g
     inkscape:label="Layer 1"
     inkscape:groupmode="layer"
     id="layer1"
     transform="translate(-129.10338,-125.1381)">
    <g
       id="g4504"
       transform="matrix(1.0000001,0,0,0.99998358,46.929623,9.0392386)"
       style="stroke-width:1.00000823">
      <path
         inkscape:connector-curvature="0"
         id="path5086-8-6-1-2-4-4"
         d="m 97.518532,116.5003 a 14.947344,14.947344 0 0 0 -0.96036,0.0338 c -9.79e-4,7e-5 -0.002,4.2e-4 -0.004,5.1e-4 -0.0593,0.004 -0.11816,0.009 -0.17722,0.0133 a 14.947344,14.947344 0 0 0 -0.20283,0.0246 14.947344,14.947344 0 0 0 -1.16371,0.14136 c -0.0258,0.004 -0.0515,0.009 -0.0773,0.0139 a 14.947344,14.947344 0 0 0 -1.39163,0.31191 c -9.79e-4,3.3e-4 -0.002,7.2e-4 -0.003,10e-4 -0.0151,0.005 -0.0299,0.008 -0.0451,0.0128 a 14.947344,14.947344 0 0 0 -0.72731,0.24175 14.947344,14.947344 0 0 0 -0.64127,0.21307 14.947344,14.947344 0 0 0 -5.29e-4,0 c -0.0162,0.006 -0.032,0.0132 -0.0482,0.0194 a 14.947344,14.947344 0 0 0 -1.29738,0.58083 c -0.0274,0.0139 -0.0546,0.028 -0.082,0.042 a 14.947344,14.947344 0 0 0 -1.17856,0.67558 c -0.0492,0.0312 -0.0982,0.0624 -0.14699,0.0943 a 14.947344,14.947344 0 0 0 -1.04181,0.74524 c -0.0599,0.0468 -0.1201,0.0932 -0.17927,0.14085 a 14.947344,14.947344 0 0 0 -0.93987,0.82566 c -0.0568,0.0542 -0.1146,0.10731 -0.17057,0.16237 a 14.947344,14.947344 0 0 0 -0.854849,0.91734 c -0.04946,0.0576 -0.100424,0.11377 -0.14904,0.17209 a 14.947344,14.947344 0 0 0 -0.802102,1.05563 c -0.02369,0.0341 -0.04886,0.0671 -0.07225,0.10142 a 14.947344,14.947344 0 0 0 -0.758044,1.23593 14.947344,14.947344 0 0 0 -0.004,0.006 14.947344,14.947344 0 0 0 0,5.3e-4 14.947344,14.947344 0 0 0 -0.648949,1.34348 14.947344,14.947344 0 0 0 -0.203336,0.55778 14.947344,14.947344 0 0 0 -0.309369,0.84819 14.947344,14.947344 0 0 0 -0.592097,2.92207 14.947344,14.947344 0 0 0 -0.07483,1.49254 14.947344,14.947344 0 0 0 0.0338,0.95779 c 2.9e-5,5.3e-4 -3e-5,9.8e-4 0,0.002 0.004,0.0613 0.0099,0.12225 0.01388,0.18337 1.19e-4,0.002 2.67e-4,0.003 5.24e-4,0.005 a 14.947344,14.947344 0 0 0 0.163897,1.35117 c 8e-5,5.3e-4 5.24e-4,9.8e-4 5.24e-4,9.8e-4 0.005,0.0308 0.011,0.0614 0.01635,0.0922 a 14.947344,14.947344 0 0 0 0.31039,1.38139 l 0.01437,0.0513 5.24e-4,0.003 a 14.947344,14.947344 0 0 0 0.452274,1.36038 c 0.0079,0.0199 0.01576,0.0395 0.02359,0.0594 a 14.947344,14.947344 0 0 0 0.575187,1.2851 c 0.01655,0.0327 0.0334,0.0652 0.05015,0.0978 a 14.947344,14.947344 0 0 0 0.6679,1.16472 c 0.03261,0.0514 0.06561,0.10266 0.09882,0.15366 a 14.947344,14.947344 0 0 0 0.743188,1.03975 c 0.04777,0.0612 0.09525,0.12248 0.143935,0.18286 a 14.947344,14.947344 0 0 0 0.817456,0.93066 c 0.056,0.0588 0.110642,0.11878 0.167484,0.1767 0.001,9.8e-4 0.002,0.002 0.004,0.004 a 14.947344,14.947344 0 0 0 0.924511,0.8605 c 2.6e-4,2.5e-4 7.94e-4,7.9e-4 9.79e-4,0.001 0.051,0.0437 0.10058,0.0891 0.15213,0.13215 a 14.947344,14.947344 0 0 0 5.29e-4,0 14.947344,14.947344 0 0 0 1.06638,0.8108 c 0.0328,0.0228 0.0648,0.0466 0.0978,0.0692 a 14.947344,14.947344 0 0 0 1.24105,0.76112 14.947344,14.947344 0 0 0 1.34501,0.64997 14.947344,14.947344 0 0 0 2.85139,0.882 14.947344,14.947344 0 0 0 1.47717,0.22332 14.947344,14.947344 0 0 0 1.49201,0.0747 14.947344,14.947344 0 0 0 5.29e-4,0 14.947344,14.947344 0 0 0 0.95779,-0.0338 c 5.29e-4,-3e-5 9.79e-4,3e-5 0.002,0 0.0614,-0.004 0.12224,-0.01 0.18338,-0.0138 a 14.947344,14.947344 0 0 0 0.005,-5.3e-4 14.947344,14.947344 0 0 0 1.351672,-0.16442 c 5.3e-4,-7e-5 9.8e-4,9e-5 0.002,0 0.0308,-0.005 0.0614,-0.0115 0.0922,-0.0168 a 14.947344,14.947344 0 0 0 1.38445,-0.31091 c 0.0156,-0.004 0.031,-0.009 0.0466,-0.0133 a 14.947344,14.947344 0 0 0 1.37012,-0.45534 c 0.0164,-0.006 0.0328,-0.0125 0.0492,-0.0189 a 14.947344,14.947344 0 0 0 0.86714,-0.38823 14.947344,14.947344 0 0 0 0.41949,-0.18746 c 2.6e-4,-1.8e-4 8e-4,-2.6e-4 9.8e-4,-5.3e-4 0.0337,-0.017 0.0673,-0.0345 0.10091,-0.0517 a 14.947344,14.947344 0 0 0 1.17241,-0.67304 c 0.0462,-0.0293 0.0925,-0.0588 0.13828,-0.0886 a 14.947344,14.947344 0 0 0 1.05615,-0.75497 c 0.0549,-0.043 0.1101,-0.0858 0.16442,-0.12959 a 14.947344,14.947344 0 0 0 0.94295,-0.82821 c 0.0588,-0.056 0.11831,-0.11104 0.17619,-0.168 a 14.947344,14.947344 0 0 0 0.85792,-0.92092 c 0.0451,-0.0525 0.0918,-0.10366 0.13625,-0.15673 a 14.947344,14.947344 0 0 0 0.003,-0.004 14.947344,14.947344 0 0 0 0.81183,-1.06844 c 0.0208,-0.0293 0.042,-0.0585 0.0624,-0.0881 a 14.947344,14.947344 0 0 0 0.76368,-1.24514 14.947344,14.947344 0 0 0 0.64997,-1.34553 14.947344,14.947344 0 0 0 0.51221,-1.4034 14.947344,14.947344 0 0 0 0.59311,-2.92515 14.947344,14.947344 0 0 0 0.0748,-1.49201 14.947344,14.947344 0 0 0 -0.0338,-0.95729 c -2e-5,-5.1e-4 4e-5,-9.8e-4 0,-0.002 -0.004,-0.061 -0.01,-0.1216 -0.0139,-0.18235 a 14.947344,14.947344 0 0 0 -0.12036,-0.99211 14.947344,14.947344 0 0 0 -0.0451,-0.36829 c -0.005,-0.0281 -0.01,-0.056 -0.0149,-0.084 a 14.947344,14.947344 0 0 0 -5.2e-4,-0.004 14.947344,14.947344 0 0 0 -0.31296,-1.39317 c -4e-5,-1.5e-4 4e-5,-3.5e-4 0,-5.1e-4 -0.003,-0.0102 -0.006,-0.0205 -0.009,-0.0307 a 14.947344,14.947344 0 0 0 -0.002,-0.006 14.947344,14.947344 0 0 0 -0.45791,-1.37729 c -0.007,-0.0174 -0.0141,-0.0348 -0.021,-0.0522 a 14.947344,14.947344 0 0 0 -0.002,-0.004 14.947344,14.947344 0 0 0 -0.57314,-1.281 c -5.3e-4,-8.2e-4 -5.3e-4,-0.002 -0.001,-0.003 -0.015,-0.0295 -0.0304,-0.0587 -0.0456,-0.0881 a 14.947344,14.947344 0 0 0 -0.64588,-1.12682 14.947344,14.947344 0 0 0 -0.0302,-0.0522 c -0.0289,-0.0455 -0.0578,-0.0911 -0.087,-0.13624 a 14.947344,14.947344 0 0 0 -0.003,-0.004 14.947344,14.947344 0 0 0 -0.74576,-1.04334 c -8e-4,-9.8e-4 -0.002,-0.002 -0.003,-0.004 -0.0464,-0.0594 -0.0926,-0.11903 -0.13984,-0.17772 a 14.947344,14.947344 0 0 0 -0.004,-0.005 14.947344,14.947344 0 0 0 -0.82565,-0.93885 c -2.6e-4,-3.4e-4 -7.6e-4,-6.9e-4 -9.8e-4,-9.8e-4 -0.0527,-0.0552 -0.10479,-0.11105 -0.15828,-0.16544 a 14.947344,14.947344 0 0 0 -0.33656,-0.31421 14.947344,14.947344 0 0 0 -0.60234,-0.56189 c -0.0457,-0.0395 -0.091,-0.0795 -0.13727,-0.11831 a 14.947344,14.947344 0 0 0 -1.06894,-0.81336 c -10e-4,-9.5e-4 -0.003,-0.002 -0.004,-0.003 -0.0322,-0.0226 -0.0638,-0.0459 -0.0963,-0.0681 a 14.947344,14.947344 0 0 0 -5.3e-4,-5e-4 14.947344,14.947344 0 0 0 -1.24062,-0.76067 14.947344,14.947344 0 0 0 -2.74894,-1.16215 14.947344,14.947344 0 0 0 -4.416649,-0.66741 z m -4.48374,8.968 h 2.98967 v 11.95818 h -2.98967 z m 5.97884,0 h 2.989668 v 11.95818 h -2.989668 z"
         style="opacity:1;vector-effect:none;fill:#000027;fill-opacity:1;fill-rule:evenodd;stroke:#d519bb;stroke-width:0.79400653;stroke-linecap:butt;stroke-linejoin:miter;stroke-miterlimit:4;stroke-dasharray:none;stroke-dashoffset:0;stroke-opacity:1" />
      <path
         sodipodi:nodetypes="cccccccccc"
         inkscape:connector-curvature="0"
         id="path5086-77-0-2-0-2"
         d="m 93.034722,125.46735 v 11.95818 h 2.98968 v -11.95818 z m 5.97884,0 v 11.95818 h 2.989678 v -11.95818 z"
         style="opacity:1;vector-effect:none;fill:#d519bb;fill-opacity:1;fill-rule:evenodd;stroke:none;stroke-width:0.79375648;stroke-linecap:butt;stroke-linejoin:miter;stroke-miterlimit:4;stroke-dasharray:none;stroke-dashoffset:0;stroke-opacity:1" />
    </g>
  </g>
</svg>
