<?xml version="1.0" encoding="UTF-8" standalone="no"?>
<!-- Created with Inkscape (http://www.inkscape.org/) -->

<svg
   xmlns:dc="http://purl.org/dc/elements/1.1/"
   xmlns:cc="http://creativecommons.org/ns#"
   xmlns:rdf="http://www.w3.org/1999/02/22-rdf-syntax-ns#"
   xmlns:svg="http://www.w3.org/2000/svg"
   xmlns="http://www.w3.org/2000/svg"
   xmlns:sodipodi="http://sodipodi.sourceforge.net/DTD/sodipodi-0.dtd"
   xmlns:inkscape="http://www.inkscape.org/namespaces/inkscape"
   width="30.692192mm"
   height="30.691259mm"
   viewBox="0 0 30.692192 30.691259"
   version="1.1"
   id="svg6843"
   inkscape:version="0.92.1 r15371"
   sodipodi:docname="play.svg">
  <defs
     id="defs6837" />
  <sodipodi:namedview
     id="base"
     pagecolor="#ffffff"
     bordercolor="#666666"
     borderopacity="1.0"
     inkscape:pageopacity="0.0"
     inkscape:pageshadow="2"
     inkscape:zoom="3.959798"
     inkscape:cx="91.759802"
     inkscape:cy="92.605277"
     inkscape:document-units="mm"
     inkscape:current-layer="layer1"
     showgrid="false"
     inkscape:window-width="1920"
     inkscape:window-height="1001"
     inkscape:window-x="-9"
     inkscape:window-y="-9"
     inkscape:window-maximized="1"
     inkscape:snap-page="true"
     inkscape:snap-bbox="true"
     inkscape:bbox-paths="true"
     inkscape:snap-bbox-edge-midpoints="true"
     inkscape:bbox-nodes="true"
     inkscape:snap-bbox-midpoints="true" />
  <metadata
     id="metadata6840">
    <rdf:RDF>
      <cc:Work
         rdf:about="">
        <dc:format>image/svg+xml</dc:format>
        <dc:type
           rdf:resource="http://purl.org/dc/dcmitype/StillImage" />
        <dc:title />
      </cc:Work>
    </rdf:RDF>
  </metadata>
  <g
     inkscape:label="Layer 1"
     inkscape:groupmode="layer"
     id="layer1"
     transform="translate(-82.1718,-116.10077)">
    <g
       id="g4519"
       transform="matrix(0.99121986,0,0,0.99121849,45.253135,23.352739)"
       style="stroke-width:1.00885856">
      <path
         inkscape:export-ydpi="96"
         inkscape:export-xdpi="96"
         inkscape:export-filename="C:\Users\Maka\Desktop\6.png"
         inkscape:connector-curvature="0"
         id="path5086-8-6-4-4-4-6-4-1"
         d="m 52.727379,93.970341 a 15.080737,15.080737 0 0 0 -0.96841,0.0341 c -0.0607,0.004 -0.12094,0.009 -0.181389,0.0134 a 15.080737,15.080737 0 0 0 -0.003,0 15.080737,15.080737 0 0 0 -1.37872,0.16795 c -0.0233,0.004 -0.047,0.008 -0.0703,0.0124 a 15.080737,15.080737 0 0 0 -1.42368,0.31936 c -0.007,0.002 -0.0141,0.004 -0.0212,0.006 a 15.080737,15.080737 0 0 0 -1.40663,0.46767 c -0.008,0.003 -0.0169,0.006 -0.0253,0.01 a 15.080737,15.080737 0 0 0 -1.314651,0.58808 c -6.88e-4,3.5e-4 -0.001,6.9e-4 -0.002,10e-4 -0.0313,0.0158 -0.0624,0.032 -0.0935,0.0481 -0.001,5.3e-4 -0.002,0.001 -0.003,0.002 a 15.080737,15.080737 0 0 0 -1.18183,0.67852 c -0.0491,0.0312 -0.0981,0.0624 -0.146761,0.0941 -5.29e-4,3.1e-4 -10e-4,6.8e-4 -0.002,0.001 a 15.080737,15.080737 0 0 0 -1.049029,0.74981 c -1.9e-4,1.5e-4 -3.17e-4,3.7e-4 -5.02e-4,5.3e-4 -0.0602,0.0471 -0.12085,0.0936 -0.18035,0.1416 a 15.080737,15.080737 0 0 0 -0.12764,0.11213 15.080737,15.080737 0 0 0 -0.82062,0.72089 c -0.002,0.002 -0.004,0.004 -0.006,0.006 -0.0548,0.0522 -0.11037,0.10354 -0.16434,0.15658 -3.44e-4,3.4e-4 -6.88e-4,6.9e-4 -10e-4,10e-4 a 15.080737,15.080737 0 0 0 -0.873319,0.93689 c -7.93e-4,9.2e-4 -0.002,0.002 -0.003,0.003 -0.0435,0.0506 -0.088,0.10023 -0.13074,0.15141 -1.5e-4,1.9e-4 -3.7e-4,3.1e-4 -5.02e-4,5.3e-4 a 15.080737,15.080737 0 0 0 -0.81598,1.073349 c -7.15e-4,10e-4 -10e-4,0.002 -0.002,0.003 -0.0232,0.0331 -0.0471,0.0653 -0.0698,0.0987 a 15.080737,15.080737 0 0 0 -0.765331,1.24799 15.080737,15.080737 0 0 0 -0.003,0.004 15.080737,15.080737 0 0 0 -5.1e-4,0.002 15.080737,15.080737 0 0 0 -0.65474,1.35597 15.080737,15.080737 0 0 0 -0.46819,1.28158 15.080737,15.080737 0 0 0 -0.0491,0.13487 15.080737,15.080737 0 0 0 -5.11e-4,0.001 15.080737,15.080737 0 0 0 -0.6726,4.45311 15.080737,15.080737 0 0 0 0,5.3e-4 15.080737,15.080737 0 0 0 0.0341,0.96945 c 9e-5,10e-4 4.21e-4,0.003 5.11e-4,0.004 0.004,0.0598 0.009,0.11917 0.0134,0.1788 a 15.080737,15.080737 0 0 0 0.16588,1.36891 c 8e-5,5.3e-4 4.31e-4,10e-4 5.21e-4,0.002 0.005,0.0311 0.0111,0.062 0.0165,0.093 a 15.080737,15.080737 0 0 0 0.31367,1.39682 c 0.004,0.0157 0.009,0.0313 0.0134,0.047 a 15.080737,15.080737 0 0 0 0.4346,1.30896 15.080737,15.080737 0 0 0 0.0248,0.0744 c 6e-5,1.5e-4 -6e-5,3.7e-4 0,5.3e-4 0.006,0.0153 0.0127,0.0302 0.0186,0.0455 a 15.080737,15.080737 0 0 0 0.58343,1.3038 c 0.0167,0.033 0.0337,0.0658 0.0506,0.0987 a 15.080737,15.080737 0 0 0 0.67748,1.18132 c 0.0305,0.048 0.061,0.0961 0.092,0.14366 a 15.080737,15.080737 0 0 0 0.75602,1.0573 c 0.0463,0.0593 0.0923,0.11869 0.13953,0.17725 a 15.080737,15.080737 0 0 0 0.82837,0.9431 c 0.0577,0.0606 0.11438,0.12225 0.17312,0.1819 a 15.080737,15.080737 0 0 0 0.92862,0.86507 c 0.0541,0.0465 0.10696,0.0943 0.16175,0.14004 a 15.080737,15.080737 0 0 0 0.61547,0.46819 15.080737,15.080737 0 0 0 0.45475,0.34571 c 10e-4,7.9e-4 0.002,0.002 0.004,0.003 0.0327,0.0229 0.0647,0.0467 0.0977,0.0693 1.9e-4,1.4e-4 3.18e-4,2.6e-4 5.03e-4,5.3e-4 a 15.080737,15.080737 0 0 0 0.15658,0.0956 15.080737,15.080737 0 0 0 1.09503,0.67128 15.080737,15.080737 0 0 0 2.77295,1.17253 15.080737,15.080737 0 0 0 2.95124,0.59842 15.080737,15.080737 0 0 0 1.43402,0.0718 15.080737,15.080737 0 0 0 0.0713,0.004 15.080737,15.080737 0 0 0 5.03e-4,0 15.080737,15.080737 0 0 0 0.96635,-0.0341 c 5.29e-4,-4e-5 10e-4,2e-5 0.002,0 0.0623,-0.004 0.12402,-0.01 0.18603,-0.0139 a 15.080737,15.080737 0 0 0 0.004,-5.3e-4 15.080737,15.080737 0 0 0 0.39325,-0.0481 15.080737,15.080737 0 0 0 0.970489,-0.1178 c 0.0316,-0.005 0.063,-0.0115 0.0946,-0.017 a 15.080737,15.080737 0 0 0 1.39681,-0.31369 c 0.0157,-0.004 0.0313,-0.009 0.047,-0.0134 a 15.080737,15.080737 0 0 0 1.38183,-0.45888 c 0.0166,-0.006 0.033,-0.0131 0.0496,-0.0196 a 15.080737,15.080737 0 0 0 1.07074,-0.47853 15.080737,15.080737 0 0 0 0.23151,-0.10387 c 6.9e-4,-2.6e-4 10e-4,-7.9e-4 0.002,-0.001 0.0314,-0.0159 0.0627,-0.032 0.0941,-0.0481 a 15.080737,15.080737 0 0 0 0.002,-10e-4 15.080737,15.080737 0 0 0 0.19895,-0.1142 15.080737,15.080737 0 0 0 0.98392,-0.56481 c 0.0473,-0.0301 0.0947,-0.0599 0.14159,-0.0904 a 15.080737,15.080737 0 0 0 1.05575,-0.755 c 0.0613,-0.0479 0.12291,-0.0954 0.18345,-0.14418 a 15.080737,15.080737 0 0 0 0.94258,-0.82837 c 0.0594,-0.0566 0.11979,-0.11243 0.17829,-0.17002 a 15.080737,15.080737 0 0 0 0.86557,-0.92914 c 0.0465,-0.0541 0.0943,-0.10695 0.14004,-0.16174 a 15.080737,15.080737 0 0 0 0.81547,-1.07229 c 0.023,-0.0331 0.047,-0.0654 0.0698,-0.0987 a 15.080737,15.080737 0 0 0 0.76792,-1.25212 15.080737,15.080737 0 0 0 1.77094,-5.72472 15.080737,15.080737 0 0 0 0.0755,-1.50533 15.080737,15.080737 0 0 0 -0.0341,-0.96583 c -1e-5,-5.3e-4 4e-5,-0.001 0,-0.002 -0.004,-0.0615 -0.01,-0.12268 -0.0139,-0.18397 a 15.080737,15.080737 0 0 0 -0.16641,-1.37097 c -1.9e-4,-0.001 -2.5e-4,-0.002 -5.3e-4,-0.004 -0.005,-0.028 -0.01,-0.0558 -0.015,-0.0837 a 15.080737,15.080737 0 0 0 -0.001,-0.005 15.080737,15.080737 0 0 0 -0.31576,-1.40457 c -0.003,-0.0117 -0.006,-0.0234 -0.01,-0.0351 a 15.080737,15.080737 0 0 0 -0.002,-0.007 15.080737,15.080737 0 0 0 -0.45889,-1.38079 c -0.006,-0.0166 -0.0131,-0.0331 -0.0196,-0.0496 a 15.080737,15.080737 0 0 0 -0.31161,-0.69609 15.080737,15.080737 0 0 0 -0.2687,-0.60099 c -2.6e-4,-6.9e-4 -7.9e-4,-0.001 -0.001,-0.002 -0.0165,-0.0326 -0.0329,-0.0652 -0.0496,-0.0977 a 15.080737,15.080737 0 0 0 -0.67822,-1.18213 c -7.9e-4,-0.001 -0.002,-0.002 -0.003,-0.004 -0.0294,-0.0462 -0.0585,-0.0926 -0.0884,-0.13849 a 15.080737,15.080737 0 0 0 -0.75912,-1.062469 c -7.9e-4,-0.001 -0.002,-0.002 -0.003,-0.003 -0.045,-0.0575 -0.0901,-0.1152 -0.1359,-0.17209 a 15.080737,15.080737 0 0 0 -0.72502,-0.82527 15.080737,15.080737 0 0 0 -0.11214,-0.12815 c -3.4e-4,-3.5e-4 -6.9e-4,-6.9e-4 -10e-4,-10e-4 -0.0528,-0.0554 -0.10516,-0.11158 -0.15896,-0.16628 a 15.080737,15.080737 0 0 0 -0.93015,-0.86664 c -0.0536,-0.0461 -0.10602,-0.0941 -0.16019,-0.13952 a 15.080737,15.080737 0 0 0 -1.06785,-0.81236 c -0.002,-0.002 -0.004,-0.003 -0.007,-0.005 -0.035,-0.0245 -0.0691,-0.0499 -0.10439,-0.0739 a 15.080737,15.080737 0 0 0 -1.23527,-0.75773 c -0.006,-0.003 -0.0109,-0.007 -0.0165,-0.01 a 15.080737,15.080737 0 0 0 -0.001,-5.2e-4 15.080737,15.080737 0 0 0 -0.22996,-0.1111 15.080737,15.080737 0 0 0 -1.12603,-0.54364 15.080737,15.080737 0 0 0 -0.002,-5.2e-4 15.080737,15.080737 0 0 0 -0.36381,-0.1323 15.080737,15.080737 0 0 0 -1.05161,-0.38343 15.080737,15.080737 0 0 0 -10e-4,-5.2e-4 15.080737,15.080737 0 0 0 -0.22066,-0.0563 15.080737,15.080737 0 0 0 -1.2392,-0.31626 15.080737,15.080737 0 0 0 -0.001,0 15.080737,15.080737 0 0 0 -0.3276,-0.0496 15.080737,15.080737 0 0 0 -1.160652,-0.17467 15.080737,15.080737 0 0 0 -0.002,-5.1e-4 15.080737,15.080737 0 0 0 -0.480923,-0.0238 15.080737,15.080737 0 0 0 -1.018029,-0.0506 z m -3.015829,8.294059 9.048541,6.78666 -9.048541,6.78615 z"
         style="opacity:1;vector-effect:none;fill:#000027;fill-opacity:1;fill-rule:evenodd;stroke:#d519bb;stroke-width:0.80103379;stroke-linecap:butt;stroke-linejoin:miter;stroke-miterlimit:4;stroke-dasharray:none;stroke-dashoffset:0;stroke-opacity:1" />
      <path
         inkscape:export-ydpi="96"
         inkscape:export-xdpi="96"
         inkscape:export-filename="C:\Users\Maka\Desktop\6.png"
         inkscape:connector-curvature="0"
         id="path4981-4-5-3-4-8-6-1"
         d="m 49.711572,102.26439 v 13.57283 l 9.048029,-6.78615 z"
         style="opacity:1;vector-effect:none;fill:#d519bb;fill-opacity:1;fill-rule:evenodd;stroke:none;stroke-width:0.80078143;stroke-linecap:butt;stroke-linejoin:miter;stroke-miterlimit:4;stroke-dasharray:none;stroke-dashoffset:0;stroke-opacity:1" />
    </g>
  </g>
</svg>
